<?xml version="1.0" encoding="utf-8"?>
<!-- Generator: Adobe Illustrator 24.0.1, SVG Export Plug-In . SVG Version: 6.00 Build 0)  -->
<svg version="1.1" id="Camada_1" xmlns="http://www.w3.org/2000/svg" xmlns:xlink="http://www.w3.org/1999/xlink" x="0px" y="0px"
	 viewBox="100 400 800 250"   style="enable-background:new 0 0 1000 1000;" xml:space="preserve">
<style type="text/css">
	.st0{fill:#0c0c0c;}
</style>
<g id="rolt-v1">
	<g>
		<g>
			<path class="st0" d="M452.9,566.2V418.4h28.6v147.8H452.9z M473,517.1V494h37.4c5.2,0,9.8-1.1,13.6-3.2c3.8-2.1,6.8-5.1,8.8-9
				c2.1-3.8,3.1-8.3,3.1-13.4c0-5.1-1-9.6-3.1-13.4c-2.1-3.8-5-6.8-8.8-9.1s-8.3-3.3-13.6-3.3H473v-24.3h34.4
				c11.8,0,22,1.8,30.7,5.3c8.6,3.6,15.3,8.8,20,15.9c4.7,7,7,16,7,26.9v3.2c0,10.7-2.4,19.6-7.1,26.6c-4.8,7-11.4,12.3-20,15.7
				c-8.6,3.4-18.8,5.1-30.6,5.1H473z M542.4,566.2l-44.9-63.8h32l46.5,63.8H542.4z"/>
			<path class="st0" d="M652,570c-9.7,0-18.2-1.5-25.5-4.6c-7.4-3.1-13.6-7.2-18.7-12.5c-5.1-5.2-9-11.2-11.6-17.9
				c-2.6-6.7-3.9-13.7-3.9-21.1v-4.2c0-7.5,1.3-14.6,4-21.4c2.7-6.8,6.6-12.8,11.8-18.1c5.2-5.3,11.5-9.5,18.9-12.5
				c7.4-3,15.8-4.5,25-4.5s17.6,1.5,24.9,4.5c7.4,3,13.6,7.2,18.8,12.5c5.2,5.3,9.1,11.3,11.8,18.1c2.7,6.8,4,13.9,4,21.4v4.2
				c0,7.4-1.3,14.4-3.9,21.1c-2.6,6.7-6.5,12.7-11.6,17.9c-5.1,5.2-11.3,9.4-18.7,12.5C670,568.5,661.6,570,652,570z M652,546.1
				c6.7,0,12.4-1.5,17.1-4.5c4.7-3,8.3-7.1,10.8-12.3c2.5-5.2,3.7-11,3.7-17.6c0-6.6-1.3-12.5-3.8-17.7c-2.5-5.2-6.2-9.4-10.9-12.4
				c-4.7-3-10.3-4.5-16.9-4.5c-6.6,0-12.2,1.5-17,4.5c-4.8,3-8.4,7.1-11,12.4c-2.5,5.2-3.8,11.1-3.8,17.7c0,6.6,1.2,12.4,3.7,17.6
				c2.5,5.2,6.1,9.3,10.8,12.3C639.4,544.6,645.2,546.1,652,546.1z"/>
			<path class="st0" d="M727.9,440.3v-20.9h41.6v20.9H727.9z M741.5,566.2V419.4h28v146.8H741.5z"/>
			<path class="st0" d="M791.4,477.5V457h77.2v20.5H791.4z M853,567.6c-10.2,0-18.5-1.3-25-3.9c-6.5-2.6-11.3-7-14.5-13.3
				c-3.2-6.2-4.7-14.6-4.7-25.2v-99h26.3L834.9,527c0,5.4,1.4,9.5,4.3,12.4c2.9,2.9,7,4.3,12.4,4.3h17.1v23.9H853z"/>
		</g>
	</g>
	<path class="st0" d="M131.6,622.9l0-167.4c0,0-5.9-81.8,91.6-78l138.4,0.5l0.4,118.3c0,0,2.6,74.1-85.2,72.5l-81.1-0.8l47.4-50.3
		l37.2,0.8c5.6,0.1,11.1-1.8,15.4-5.5l4-3.4c6.8-5.8,10.7-14.2,10.8-23.2l0.6-55.8l-91.3-0.5c0,0-28.3-2.5-33.9,28.9l1.9,116.2
		L131.6,622.9z"/>
</g>
</svg>
